<svg width="271" height="86" viewBox="0 0 271 86" fill="none" xmlns="http://www.w3.org/2000/svg">
<path d="M4.864 65V18.28H12.416L17.28 33.384C17.7493 34.7493 18.176 36.1147 18.56 37.48C18.944 38.8027 19.2213 39.8267 19.392 40.552C19.6053 39.8267 19.8827 38.8027 20.224 37.48C20.5653 36.1147 20.9493 34.728 21.376 33.32L25.984 18.28H33.536V65H27.904V48.04C27.904 46.1627 27.968 44.0293 28.096 41.64C28.224 39.2507 28.3947 36.8187 28.608 34.344C28.8213 31.8267 29.0347 29.4373 29.248 27.176C29.504 24.872 29.7173 22.8667 29.888 21.16L22.336 44.52H16.256L8.64 21.16C8.85333 22.824 9.06667 24.7653 9.28 26.984C9.49333 29.16 9.68533 31.4853 9.856 33.96C10.0267 36.392 10.176 38.824 10.304 41.256C10.432 43.688 10.496 45.9493 10.496 48.04V65H4.864ZM57.575 65.64C54.759 65.64 52.327 65.1067 50.279 64.04C48.2737 62.9733 46.7163 61.4373 45.607 59.432C44.5403 57.384 44.007 54.9733 44.007 52.2V31.08C44.007 28.264 44.5403 25.8533 45.607 23.848C46.7163 21.8427 48.2737 20.3067 50.279 19.24C52.327 18.1733 54.759 17.64 57.575 17.64C60.391 17.64 62.8017 18.1733 64.807 19.24C66.855 20.3067 68.4123 21.8427 69.479 23.848C70.5883 25.8533 71.143 28.2427 71.143 31.016V52.2C71.143 54.9733 70.5883 57.384 69.479 59.432C68.4123 61.4373 66.855 62.9733 64.807 64.04C62.8017 65.1067 60.391 65.64 57.575 65.64ZM57.575 60.456C60.0923 60.456 62.0123 59.752 63.335 58.344C64.7003 56.8933 65.383 54.8453 65.383 52.2V31.08C65.383 28.4347 64.7003 26.408 63.335 25C62.0123 23.5493 60.0923 22.824 57.575 22.824C55.1003 22.824 53.1803 23.5493 51.815 25C50.4497 26.408 49.767 28.4347 49.767 31.08V52.2C49.767 54.8453 50.4497 56.8933 51.815 58.344C53.1803 59.752 55.1003 60.456 57.575 60.456ZM82.702 65V18.28H88.462V38.248H103.438V18.28H109.198V65H103.438V43.496H88.462V65H82.702ZM118.325 65L130.485 18.28H138.229L150.325 65H144.501L141.429 52.584H127.285L124.213 65H118.325ZM128.437 47.72H140.213L136.629 33.32C135.946 30.5893 135.413 28.3067 135.029 26.472C134.645 24.6373 134.41 23.4427 134.325 22.888C134.24 23.4427 134.005 24.6373 133.621 26.472C133.237 28.3067 132.704 30.568 132.021 33.256L128.437 47.72ZM158.364 65V18.28H165.916L170.78 33.384C171.249 34.7493 171.676 36.1147 172.06 37.48C172.444 38.8027 172.721 39.8267 172.892 40.552C173.105 39.8267 173.383 38.8027 173.724 37.48C174.065 36.1147 174.449 34.728 174.876 33.32L179.484 18.28H187.036V65H181.404V48.04C181.404 46.1627 181.468 44.0293 181.596 41.64C181.724 39.2507 181.895 36.8187 182.108 34.344C182.321 31.8267 182.535 29.4373 182.748 27.176C183.004 24.872 183.217 22.8667 183.388 21.16L175.836 44.52H169.756L162.14 21.16C162.353 22.824 162.567 24.7653 162.78 26.984C162.993 29.16 163.185 31.4853 163.356 33.96C163.527 36.392 163.676 38.824 163.804 41.256C163.932 43.688 163.996 45.9493 163.996 48.04V65H158.364ZM198.275 65V18.28H225.155V23.528H203.971V37.992H222.915V43.176H203.971V59.752H225.155V65H198.275ZM236.138 65V18.28H248.234C251.263 18.28 253.866 18.856 256.042 20.008C258.261 21.16 259.967 22.7813 261.162 24.872C262.399 26.9627 263.018 29.4373 263.018 32.296V50.92C263.018 53.7787 262.399 56.2747 261.162 58.408C259.967 60.4987 258.261 62.12 256.042 63.272C253.866 64.424 251.263 65 248.234 65H236.138ZM241.898 59.88H248.234C251.05 59.88 253.247 59.0907 254.826 57.512C256.447 55.9333 257.258 53.736 257.258 50.92V32.296C257.258 29.5227 256.447 27.3467 254.826 25.768C253.247 24.1893 251.05 23.4 248.234 23.4H241.898V59.88Z" fill="#FAFF0F"/>
<path d="M6.864 67V20.28H14.416L19.28 35.384C19.7493 36.7493 20.176 38.1147 20.56 39.48C20.944 40.8027 21.2213 41.8267 21.392 42.552C21.6053 41.8267 21.8827 40.8027 22.224 39.48C22.5653 38.1147 22.9493 36.728 23.376 35.32L27.984 20.28H35.536V67H29.904V50.04C29.904 48.1627 29.968 46.0293 30.096 43.64C30.224 41.2507 30.3947 38.8187 30.608 36.344C30.8213 33.8267 31.0347 31.4373 31.248 29.176C31.504 26.872 31.7173 24.8667 31.888 23.16L24.336 46.52H18.256L10.64 23.16C10.8533 24.824 11.0667 26.7653 11.28 28.984C11.4933 31.16 11.6853 33.4853 11.856 35.96C12.0267 38.392 12.176 40.824 12.304 43.256C12.432 45.688 12.496 47.9493 12.496 50.04V67H6.864ZM59.575 67.64C56.759 67.64 54.327 67.1067 52.279 66.04C50.2737 64.9733 48.7163 63.4373 47.607 61.432C46.5403 59.384 46.007 56.9733 46.007 54.2V33.08C46.007 30.264 46.5403 27.8533 47.607 25.848C48.7163 23.8427 50.2737 22.3067 52.279 21.24C54.327 20.1733 56.759 19.64 59.575 19.64C62.391 19.64 64.8017 20.1733 66.807 21.24C68.855 22.3067 70.4123 23.8427 71.479 25.848C72.5883 27.8533 73.143 30.2427 73.143 33.016V54.2C73.143 56.9733 72.5883 59.384 71.479 61.432C70.4123 63.4373 68.855 64.9733 66.807 66.04C64.8017 67.1067 62.391 67.64 59.575 67.64ZM59.575 62.456C62.0923 62.456 64.0123 61.752 65.335 60.344C66.7003 58.8933 67.383 56.8453 67.383 54.2V33.08C67.383 30.4347 66.7003 28.408 65.335 27C64.0123 25.5493 62.0923 24.824 59.575 24.824C57.1003 24.824 55.1803 25.5493 53.815 27C52.4497 28.408 51.767 30.4347 51.767 33.08V54.2C51.767 56.8453 52.4497 58.8933 53.815 60.344C55.1803 61.752 57.1003 62.456 59.575 62.456ZM84.702 67V20.28H90.462V40.248H105.438V20.28H111.198V67H105.438V45.496H90.462V67H84.702ZM120.325 67L132.485 20.28H140.229L152.325 67H146.501L143.429 54.584H129.285L126.213 67H120.325ZM130.437 49.72H142.213L138.629 35.32C137.946 32.5893 137.413 30.3067 137.029 28.472C136.645 26.6373 136.41 25.4427 136.325 24.888C136.24 25.4427 136.005 26.6373 135.621 28.472C135.237 30.3067 134.704 32.568 134.021 35.256L130.437 49.72ZM160.364 67V20.28H167.916L172.78 35.384C173.249 36.7493 173.676 38.1147 174.06 39.48C174.444 40.8027 174.721 41.8267 174.892 42.552C175.105 41.8267 175.383 40.8027 175.724 39.48C176.065 38.1147 176.449 36.728 176.876 35.32L181.484 20.28H189.036V67H183.404V50.04C183.404 48.1627 183.468 46.0293 183.596 43.64C183.724 41.2507 183.895 38.8187 184.108 36.344C184.321 33.8267 184.535 31.4373 184.748 29.176C185.004 26.872 185.217 24.8667 185.388 23.16L177.836 46.52H171.756L164.14 23.16C164.353 24.824 164.567 26.7653 164.78 28.984C164.993 31.16 165.185 33.4853 165.356 35.96C165.527 38.392 165.676 40.824 165.804 43.256C165.932 45.688 165.996 47.9493 165.996 50.04V67H160.364ZM200.275 67V20.28H227.155V25.528H205.971V39.992H224.915V45.176H205.971V61.752H227.155V67H200.275ZM238.138 67V20.28H250.234C253.263 20.28 255.866 20.856 258.042 22.008C260.261 23.16 261.967 24.7813 263.162 26.872C264.399 28.9627 265.018 31.4373 265.018 34.296V52.92C265.018 55.7787 264.399 58.2747 263.162 60.408C261.967 62.4987 260.261 64.12 258.042 65.272C255.866 66.424 253.263 67 250.234 67H238.138ZM243.898 61.88H250.234C253.05 61.88 255.247 61.0907 256.826 59.512C258.447 57.9333 259.258 55.736 259.258 52.92V34.296C259.258 31.5227 258.447 29.3467 256.826 27.768C255.247 26.1893 253.05 25.4 250.234 25.4H243.898V61.88Z" fill="#115072"/>
</svg>
